<svg width="202" height="70" viewBox="0 0 202 70" fill="none" xmlns="http://www.w3.org/2000/svg">
<circle cx="35.97" cy="35" r="35" fill="white"/>
<path d="M25.502 12.1703C24.5741 12.9111 23.5199 13.9166 22.6802 14.8597C22.0368 15.5838 21.369 16.4569 20.8898 17.2023C19.5101 19.3517 18.8652 21.4463 18.9838 23.3934C19.1025 25.3101 19.9072 27.0686 21.4238 28.716C21.5363 28.8377 21.6793 28.9883 21.7417 29.0506L21.8558 29.1617L21.874 29.1039C21.9242 28.9472 22.09 28.5593 22.2163 28.2992C22.8308 27.0427 23.7694 25.8729 24.8935 24.9663C26.5197 23.6551 28.5565 22.8458 30.9249 22.5735C31.824 22.4701 32.2179 22.461 34.5073 22.4959C41.17 22.5979 46.5975 22.6648 50.0916 22.6876C51.631 22.6967 52.2501 22.6846 52.6548 22.6405C53.5005 22.5446 54.2748 22.321 55.0354 21.9544L55.3001 21.8251L55.0886 21.6152C54.9715 21.4996 52.7415 19.2878 50.1342 16.7018L45.3912 11.9999H35.5523H25.7134L25.502 12.1703Z" fill="#C072DC"/>
<path d="M20.623 45.709V58L20.6976 57.9635C20.8193 57.9011 21.3867 57.5741 21.6955 57.3885C23.9453 56.0331 26.0384 54.4131 27.628 52.7946C30.6171 49.7523 31.8933 46.7343 31.4157 43.8304C31.0658 41.6962 29.7363 39.6304 27.4546 37.6727C25.9882 36.4147 24.1628 35.2251 21.8552 34.0265C21.4475 33.8135 20.6504 33.418 20.6307 33.418C20.6261 33.418 20.623 38.9489 20.623 45.709Z" fill="#C072DC"/>
<path d="M38.1846 36.5596C38.1846 38.2876 38.1876 39.7008 38.1907 39.7008C38.2089 39.7008 38.5268 39.5091 38.7398 39.3692C39.8381 38.6512 40.5987 37.8146 40.8542 37.0479C40.9409 36.7878 40.9607 36.6661 40.9607 36.3847C40.9607 36.2006 40.9531 36.1002 40.9333 36.0074C40.7493 35.1617 39.9993 34.3828 38.6789 33.6663C38.4705 33.5538 38.2059 33.4184 38.1922 33.4184C38.1876 33.4184 38.1846 34.8316 38.1846 36.5596Z" fill="#C072DC"/>
<path d="M80.9883 33.5568C81.0158 33.6301 81.5015 33.7676 82.143 33.8959L83.2611 34.1067V50.3642C83.2611 59.3087 83.2336 66.6218 83.2061 66.6218C83.1236 66.6218 81.4374 66.8968 81.1716 66.9517C81.0616 66.9701 80.97 67.0342 80.97 67.08C80.97 67.2083 92.4254 67.1992 93.8001 67.0709C96.4761 66.8234 98.4922 66.0995 100.921 64.4865C105.127 61.7097 107.354 56.3302 107.153 49.4845C107.088 47.4775 106.942 46.3044 106.529 44.6365C105.805 41.7131 104.587 39.4587 102.69 37.5616C100.38 35.2522 97.4017 33.9325 93.626 33.5476C92.1872 33.401 80.9425 33.4102 80.9883 33.5568ZM93.5801 34.2716C94.4966 34.5007 95.9446 35.2155 96.7785 35.8387C99.5553 37.9282 101.278 41.6673 101.828 46.7626C102.002 48.3481 102.021 51.8305 101.865 53.4251C101.599 56.2753 100.82 59.2079 99.8119 61.1965C98.7947 63.1944 96.6594 65.3113 94.9915 65.9803C93.5343 66.5668 93.0669 66.6493 90.8033 66.686L88.668 66.7318V50.4101V34.0883H90.7575C92.5446 34.0883 92.957 34.1158 93.5801 34.2716Z" fill="white"/>
<path d="M118.965 44.9389C117.929 45.1039 117.113 45.3788 115.931 45.9653C112.834 47.4866 110.937 49.9335 110.213 53.3518C110.048 54.1124 110.002 54.6165 110.002 55.8995C109.993 58.1356 110.268 59.5102 111.092 61.2698C111.652 62.4795 112.238 63.3226 113.182 64.3032C115.418 66.6126 118.424 67.7582 121.897 67.6024C123.354 67.5382 124.243 67.3183 125.416 66.7501C127.084 65.9436 128.45 64.5415 129.247 62.8186C129.55 62.1679 129.934 60.9582 130.054 60.2709L130.118 59.9318H129.559C129.036 59.9318 129.009 59.941 129.009 60.1517C129.009 60.5183 128.56 61.9571 128.212 62.6811C127.808 63.5242 126.69 64.6789 125.847 65.128C123.547 66.3469 121.366 66.1177 119.285 64.4407C117.489 62.9927 116.27 60.7016 115.629 57.5674C115.326 56.0828 115.235 56.2111 116.664 56.1378C120.22 55.9545 122.539 55.4871 124.592 54.5157C125.829 53.9383 126.672 53.361 127.304 52.6828C127.937 52.0046 128.202 51.4823 128.413 50.5658C128.798 48.8338 128.065 47.4133 126.131 46.1394C125.215 45.5346 124.747 45.3513 123.51 45.0855C122.31 44.8289 120.074 44.7556 118.965 44.9389ZM122.484 45.5804C123.098 45.9287 123.739 46.6068 123.868 47.065C124.042 47.7065 123.987 49.0904 123.758 49.7594C122.942 52.1329 120.523 54.3599 117.847 55.203C117.214 55.4046 115.739 55.7162 115.436 55.7162C115.326 55.7162 115.336 52.9944 115.446 52.0504C115.84 48.8429 117.425 46.2769 119.515 45.4796C119.991 45.2963 120.211 45.2688 121.036 45.2963C121.897 45.3146 122.044 45.3513 122.484 45.5804Z" fill="white"/>
<path d="M141.316 44.9567C136.524 45.7632 133.16 49.4381 132.565 54.5335C132.372 56.2472 132.574 58.3642 133.096 59.913C134.113 62.9372 136.019 65.155 138.75 66.493C142.27 68.2067 146.733 67.9685 149.427 65.934C150.408 65.1917 151.416 63.7803 152.011 62.3141C152.222 61.7917 152.644 60.3162 152.644 60.0963C152.644 60.0596 152.405 60.023 152.103 60.023H151.562L151.507 60.4354C151.406 61.0585 151.058 62.03 150.618 62.8822C149.867 64.3302 148.456 65.4299 146.824 65.8423C145.642 66.1448 144.258 65.9248 142.902 65.2375C142.315 64.9351 141.967 64.6693 141.316 64.0095C139.612 62.2866 138.778 60.6095 138.21 57.796C137.669 55.0834 137.669 52.5723 138.21 50.437C138.64 48.7416 139.154 47.7794 140.18 46.7255C141.61 45.2683 143.571 44.7918 145.028 45.5433C145.56 45.8182 146.375 46.6063 146.595 47.0554C147.063 48.0176 147.182 49.3007 146.916 50.492C146.659 51.6376 146.806 53.0031 147.246 53.6262C147.347 53.7637 147.64 53.9928 147.887 54.1119C148.272 54.3136 148.446 54.3411 149.225 54.3319C150.316 54.3319 150.701 54.1944 151.416 53.5712C152.011 53.0489 152.25 52.5815 152.332 51.8025C152.451 50.6386 151.947 49.319 150.866 47.9535C149.152 45.7999 146.76 44.7918 143.397 44.8193C142.664 44.8284 141.729 44.8834 141.316 44.9567Z" fill="white"/>
<path d="M165.55 44.8654C163.24 45.1404 161.261 45.7819 159.987 46.6525C159.346 47.1015 157.98 48.4395 157.531 49.0719C156.871 49.9975 156.156 51.5371 155.891 52.6002C155.551 53.9748 155.469 54.6621 155.469 56.2659C155.469 59.84 156.413 62.4793 158.411 64.4313C159.41 65.4028 160.134 65.9435 161.105 66.4017C162.645 67.1348 164.34 67.5106 166.466 67.6022C168.702 67.6939 170.471 67.3914 172.24 66.6308C173.349 66.1542 174.238 65.5311 175.227 64.5596C176.804 63.0017 177.537 61.5812 178.032 59.0794C178.325 57.6039 178.325 54.8363 178.032 53.3608C177.647 51.4546 177.134 50.2174 176.171 48.9161C174.824 47.1015 172.212 45.5253 169.747 45.0396C169.014 44.8929 166.274 44.7829 165.55 44.8654ZM168.116 45.4519C169.188 45.791 170.279 46.7441 171.094 48.0638C172.854 50.8773 173.422 55.6702 172.561 60.3532C172.212 62.2044 171.644 63.6707 170.819 64.8346C170.389 65.4486 169.271 66.5392 168.876 66.7499C168.446 66.9699 167.337 67.2631 166.943 67.2631C166.43 67.2631 165.238 66.8691 164.679 66.5208C162.855 65.3844 161.582 62.8276 161.087 59.336C160.867 57.8055 160.876 54.598 161.087 53.1225C161.563 49.9517 162.709 47.4406 164.248 46.2309C165.376 45.3328 166.842 45.0396 168.116 45.4519Z" fill="white"/>
<path d="M192.466 44.9388C191.806 45.1038 190.816 45.7178 190.184 46.3593C189.882 46.6526 189.35 47.3399 189.002 47.8714L188.36 48.8428L188.333 47.0008L188.315 45.1588L188.003 45.2138C187.783 45.2596 187.49 45.4704 187.022 45.9377C185.639 47.2849 183.265 48.0822 180.882 47.9997C180.287 47.9814 179.792 47.9997 179.792 48.0364C179.792 48.073 179.819 48.1097 179.865 48.1097C179.902 48.1097 180.589 48.1922 181.396 48.293C182.202 48.3938 182.889 48.4763 182.935 48.4763C182.972 48.4763 182.99 52.5636 182.981 57.5673L182.953 66.6584L182.129 66.8142C181.68 66.9058 181.194 66.9791 181.056 66.9791C180.919 66.9883 180.781 67.0249 180.754 67.0799C180.717 67.1441 182.376 67.1716 185.666 67.1716C188.397 67.1716 190.606 67.1441 190.569 67.1074C190.496 67.0341 189.68 66.8691 188.791 66.75L188.315 66.6859L188.333 59.4827L188.36 52.2795L188.791 51.1889C189.9 48.4213 190.523 47.3032 191.476 46.3226C191.907 45.8828 192.292 45.5895 192.649 45.4245C193.208 45.1679 193.309 45.1771 194.116 45.5528C194.491 45.727 195.417 46.9092 195.637 47.5048C195.884 48.183 196.013 49.3011 195.912 49.9884C195.756 51.0148 195.71 52.5544 195.82 52.9027C195.994 53.425 196.453 53.9749 196.865 54.1673C197.167 54.2956 197.461 54.3415 198.212 54.3415C199.385 54.3415 199.843 54.1582 200.604 53.4159C201.236 52.8018 201.365 52.3895 201.31 51.2256C201.273 50.4833 201.236 50.3366 200.879 49.6401C199.963 47.8164 197.864 45.7728 196.288 45.1404C195.655 44.8838 195.499 44.8655 194.271 44.838C193.401 44.8288 192.778 44.8563 192.466 44.9388Z" fill="white"/>
<path d="M80.97 2.43702C80.97 2.47289 81.1583 2.59847 81.3826 2.71508C81.9387 3.01108 82.5307 3.70176 82.7729 4.32067C83.1945 5.45086 83.2035 5.67511 83.2124 14.0798C83.2124 22.646 83.1945 23.0137 82.7191 24.0452C82.4679 24.6103 81.8759 25.2651 81.3557 25.5701C81.1404 25.6957 80.97 25.8302 80.97 25.8751C80.97 25.9199 82.9792 25.9558 85.8137 25.9558C88.4777 25.9558 90.6574 25.9199 90.6574 25.8751C90.6574 25.8392 90.4152 25.6508 90.1281 25.4714C89.4554 25.0588 88.9979 24.4489 88.7019 23.5519L88.4598 22.8612L88.4328 18.6185L88.4059 14.3848H88.9352C91.6979 14.3848 94.8642 15.2638 97.2322 16.69C97.5103 16.8604 97.7794 16.986 97.8242 16.9681C97.8601 16.9501 97.6807 16.3581 97.4027 15.6405C97.1336 14.923 96.5595 13.3353 96.1289 12.0975C95.6984 10.8686 95.3037 9.84606 95.2589 9.83709C95.214 9.81915 95.1064 10.0613 95.0167 10.3663C94.64 11.7387 93.6264 12.6536 91.8683 13.2187C91.0431 13.4788 89.4554 13.7569 88.7827 13.7569H88.4149V8.37502V2.99314H89.6079C92.8819 2.99314 95.3217 3.79145 97.5013 5.56747C98.2638 6.19536 99.3401 7.41525 99.8963 8.27635C100.3 8.90424 100.569 9.11054 100.479 8.7069C100.452 8.59926 100.228 7.21791 99.986 5.63923C99.7438 4.06055 99.5195 2.6792 99.4926 2.56259L99.4478 2.36526H90.2089C85.123 2.36526 80.97 2.39217 80.97 2.43702Z" fill="white"/>
<path d="M130.669 8.64412C129.772 8.91321 128.696 9.01188 126.274 9.0657C125.027 9.09261 124.023 9.1554 124.032 9.19128C124.05 9.23613 124.283 9.39758 124.552 9.55904C125.449 10.0972 125.978 11.0749 126.175 12.546C126.229 13.0034 126.256 14.9768 126.229 18.0175C126.202 22.2244 126.175 22.8343 126.041 23.3008C125.709 24.413 125.126 25.2113 124.355 25.606C124.166 25.7047 124.014 25.8213 124.014 25.8661C124.014 25.9199 125.754 25.9558 128.857 25.9558C131.961 25.9558 133.701 25.9199 133.701 25.8661C133.701 25.8213 133.54 25.6957 133.333 25.597C132.813 25.3279 132.248 24.7269 131.979 24.1529C131.494 23.1393 131.459 22.7087 131.459 17.5601V12.842L131.692 12.3845C132.786 10.1869 134.939 8.80557 136.464 9.30788C137.038 9.50522 137.558 10.0524 137.818 10.743C138.24 11.8643 138.294 12.6177 138.356 17.5242L138.419 22.1437L138.643 22.7805C139.235 24.413 140.446 25.4535 142.186 25.8213C142.877 25.9648 145.81 26.0096 145.81 25.8751C145.81 25.8302 145.595 25.6688 145.326 25.5163C144.797 25.2203 144.276 24.6552 144.052 24.108C143.658 23.1841 143.64 22.9599 143.568 19.4079C143.496 15.6944 143.406 14.914 142.904 13.434C142.025 10.8417 140.222 9.05673 138.007 8.5903C137.101 8.40194 135.387 8.46472 134.688 8.71588C133.297 9.20922 132.472 9.86401 131.611 11.1557C131.468 11.362 131.459 11.3081 131.459 9.91783C131.459 8.81454 131.432 8.46472 131.351 8.47369C131.288 8.48266 130.983 8.55442 130.669 8.64412Z" fill="white"/>
<path d="M100.945 9.17323C100.945 9.22705 101.196 9.3885 101.492 9.54996C102.551 10.1151 103.824 11.5413 104.533 12.9495C104.65 13.1648 105.403 15.165 106.21 17.3806C107.789 21.6861 108.04 22.2691 108.704 23.1571C109.682 24.4577 111.619 25.6238 113.126 25.8301C113.808 25.9198 113.817 25.9198 113.467 26.7809C112.157 30.037 110.13 32.5575 108.211 33.3109C106.722 33.894 105.609 33.4634 105.062 32.091C104.883 31.6336 104.856 31.4004 104.847 30.3958C104.847 29.418 104.883 29.122 105.053 28.5749C105.17 28.2071 105.251 27.8752 105.233 27.8304C105.215 27.7855 104.228 28.3417 103.026 29.0593C100.532 30.5482 100.703 30.2791 101.555 31.4273C102.909 33.2481 104.443 34.172 106.282 34.2707C108.964 34.4142 111.215 32.683 113.216 28.9157C113.915 27.6061 114.427 26.3504 116.104 21.7848C116.956 19.4616 117.871 17.0936 118.131 16.5105C119.71 12.9944 121.28 10.7698 122.957 9.67553C123.334 9.43335 123.639 9.20013 123.639 9.16426C123.639 9.12838 121.459 9.0925 118.795 9.0925C115.682 9.0925 113.951 9.12838 113.951 9.1822C113.951 9.22705 114.167 9.37953 114.418 9.50511C115.037 9.81905 115.987 10.7878 116.346 11.4695C117.189 13.0841 117.306 15.4341 116.651 17.9905C116.481 18.6364 114.382 24.4488 114.337 24.395C114.229 24.2873 110.121 12.9047 109.951 12.2409C109.592 10.8237 109.718 9.91772 110.354 9.44232C110.507 9.33468 110.632 9.2091 110.632 9.16426C110.632 9.12838 108.453 9.0925 105.789 9.0925C102.82 9.0925 100.945 9.12838 100.945 9.17323Z" fill="white"/>
</svg>
