<svg width="201" height="70" viewBox="0 0 201 70" fill="none" xmlns="http://www.w3.org/2000/svg">
<circle cx="35" cy="35" r="35" fill="#C072DC"/>
<path d="M24.532 12.1702C23.6041 12.911 22.55 13.9165 21.7103 14.8596C21.0668 15.5837 20.399 16.4569 19.9199 17.2022C18.5402 19.3516 17.8952 21.4463 18.0138 23.3934C18.1325 25.31 18.9372 27.0685 20.4538 28.7159C20.5664 28.8376 20.7093 28.9882 20.7717 29.0506L20.8858 29.1616L20.9041 29.1038C20.9542 28.9471 21.1201 28.5592 21.2463 28.2991C21.8609 27.0426 22.7994 25.8729 23.9236 24.9663C25.5497 23.655 27.5865 22.8458 29.955 22.5735C30.854 22.47 31.248 22.4609 33.5373 22.4959C40.2 22.5978 45.6275 22.6647 49.1216 22.6875C50.6611 22.6967 51.2802 22.6845 51.6848 22.6404C52.5306 22.5446 53.3048 22.3209 54.0654 21.9543L54.3301 21.825L54.1187 21.6151C54.0015 21.4995 51.7715 19.2877 49.1642 16.7018L44.4212 11.9999H34.5824H24.7435L24.532 12.1702Z" fill="white"/>
<path d="M19.6531 45.709V58L19.7277 57.9635C19.8494 57.9011 20.4168 57.5741 20.7256 57.3885C22.9754 56.0331 25.0685 54.4131 26.6581 52.7946C29.6472 49.7523 30.9234 46.7343 30.4458 43.8304C30.0959 41.6962 28.7664 39.6304 26.4847 37.6727C25.0183 36.4147 23.1929 35.2251 20.8853 34.0265C20.4776 33.8135 19.6805 33.418 19.6607 33.418C19.6562 33.418 19.6531 38.9489 19.6531 45.709Z" fill="white"/>
<path d="M37.2146 36.5597C37.2146 38.2878 37.2176 39.7009 37.2207 39.7009C37.2389 39.7009 37.5569 39.5093 37.7698 39.3693C38.8681 38.6513 39.6287 37.8147 39.8842 37.048C39.9709 36.7879 39.9907 36.6662 39.9907 36.3848C39.9907 36.2007 39.9831 36.1003 39.9633 36.0075C39.7793 35.1618 39.0293 34.3829 37.709 33.6665C37.5006 33.5539 37.2359 33.4185 37.2222 33.4185C37.2176 33.4185 37.2146 34.8317 37.2146 36.5597Z" fill="white"/>
<path d="M80.0183 33.5566C80.0458 33.6299 80.5315 33.7674 81.173 33.8957L82.2911 34.1065V50.3641C82.2911 59.3085 82.2636 66.6216 82.2361 66.6216C82.1536 66.6216 80.4674 66.8966 80.2016 66.9516C80.0916 66.9699 80 67.034 80 67.0799C80 67.2082 91.4555 67.199 92.8301 67.0707C95.5061 66.8233 97.5223 66.0993 99.9508 64.4863C104.157 61.7095 106.384 56.3301 106.183 49.4843C106.118 47.4773 105.972 46.3042 105.559 44.6363C104.835 41.7129 103.617 39.4585 101.72 37.5614C99.4101 35.252 96.4317 33.9324 92.656 33.5475C91.2172 33.4008 79.9725 33.41 80.0183 33.5566ZM92.6102 34.2714C93.5266 34.5005 94.9746 35.2154 95.8085 35.8385C98.5853 37.928 100.308 41.6671 100.858 46.7625C101.032 48.3479 101.051 51.8304 100.895 53.425C100.629 56.2751 99.85 59.2077 98.8419 61.1963C97.8247 63.1942 95.6894 65.3111 94.0215 65.9801C92.5644 66.5667 92.097 66.6491 89.8334 66.6858L87.6981 66.7316V50.4099V34.0882H89.7875C91.5746 34.0882 91.987 34.1156 92.6102 34.2714Z" fill="#C072DC"/>
<path d="M117.995 44.9387C116.959 45.1037 116.144 45.3786 114.961 45.9651C111.864 47.4864 109.967 49.9333 109.243 53.3516C109.078 54.1122 109.032 54.6163 109.032 55.8993C109.023 58.1354 109.298 59.5101 110.123 61.2696C110.682 62.4793 111.268 63.3224 112.212 64.303C114.448 66.6124 117.454 67.758 120.927 67.6022C122.384 67.538 123.273 67.3181 124.446 66.7499C126.114 65.9434 127.48 64.5413 128.277 62.8184C128.58 62.1677 128.964 60.958 129.084 60.2707L129.148 59.9316H128.589C128.066 59.9316 128.039 59.9408 128.039 60.1516C128.039 60.5181 127.59 61.9569 127.242 62.6809C126.838 63.524 125.72 64.6788 124.877 65.1278C122.577 66.3467 120.396 66.1176 118.315 64.4405C116.519 62.9925 115.3 60.7014 114.659 57.5672C114.356 56.0826 114.265 56.2109 115.694 56.1376C119.25 55.9543 121.569 55.4869 123.622 54.5155C124.859 53.9381 125.702 53.3608 126.334 52.6826C126.967 52.0044 127.232 51.4821 127.443 50.5656C127.828 48.8336 127.095 47.4131 125.161 46.1392C124.245 45.5344 123.777 45.3511 122.54 45.0853C121.34 44.8287 119.104 44.7554 117.995 44.9387ZM121.514 45.5802C122.128 45.9285 122.769 46.6066 122.898 47.0648C123.072 47.7064 123.017 49.0902 122.788 49.7592C121.972 52.1327 119.553 54.3597 116.877 55.2028C116.244 55.4044 114.769 55.716 114.466 55.716C114.356 55.716 114.366 52.9942 114.476 52.0503C114.87 48.8427 116.455 46.2767 118.545 45.4794C119.021 45.2961 119.241 45.2686 120.066 45.2961C120.927 45.3145 121.074 45.3511 121.514 45.5802Z" fill="#C072DC"/>
<path d="M140.347 44.9566C135.554 45.763 132.19 49.4379 131.595 54.5333C131.402 56.2471 131.604 58.364 132.126 59.9128C133.143 62.937 135.05 65.1548 137.781 66.4928C141.3 68.2066 145.763 67.9683 148.457 65.9338C149.438 65.1915 150.446 63.7802 151.041 62.3139C151.252 61.7915 151.674 60.316 151.674 60.0961C151.674 60.0594 151.436 60.0228 151.133 60.0228H150.592L150.537 60.4352C150.437 61.0583 150.088 62.0298 149.648 62.8821C148.897 64.33 147.486 65.4298 145.854 65.8421C144.672 66.1446 143.288 65.9246 141.932 65.2373C141.346 64.9349 140.997 64.6691 140.347 64.0093C138.642 62.2864 137.808 60.6093 137.24 57.7958C136.699 55.0832 136.699 52.5721 137.24 50.4369C137.671 48.7414 138.184 47.7792 139.21 46.7253C140.64 45.2681 142.601 44.7916 144.058 45.5431C144.59 45.818 145.405 46.6061 145.625 47.0552C146.093 48.0175 146.212 49.3005 145.946 50.4918C145.689 51.6374 145.836 53.0029 146.276 53.626C146.377 53.7635 146.67 53.9926 146.917 54.1118C147.302 54.3134 147.477 54.3409 148.255 54.3317C149.346 54.3317 149.731 54.1942 150.446 53.5711C151.041 53.0487 151.28 52.5813 151.362 51.8023C151.481 50.6385 150.977 49.3188 149.896 47.9533C148.182 45.7997 145.79 44.7916 142.427 44.8191C141.694 44.8283 140.759 44.8832 140.347 44.9566Z" fill="#C072DC"/>
<path d="M164.58 44.8652C162.271 45.1402 160.291 45.7817 159.017 46.6523C158.376 47.1013 157.01 48.4393 156.561 49.0717C155.901 49.9973 155.186 51.5369 154.921 52.6C154.582 53.9746 154.499 54.662 154.499 56.2657C154.499 59.8398 155.443 62.4792 157.441 64.4312C158.44 65.4026 159.164 65.9433 160.135 66.4015C161.675 67.1347 163.37 67.5104 165.496 67.602C167.732 67.6937 169.501 67.3913 171.27 66.6306C172.379 66.1541 173.268 65.5309 174.258 64.5595C175.834 63.0015 176.567 61.581 177.062 59.0792C177.355 57.6037 177.355 54.8361 177.062 53.3606C176.677 51.4544 176.164 50.2172 175.201 48.9159C173.854 47.1014 171.242 45.5251 168.777 45.0394C168.044 44.8927 165.304 44.7828 164.58 44.8652ZM167.146 45.4518C168.218 45.7908 169.309 46.7439 170.124 48.0636C171.884 50.8771 172.452 55.67 171.591 60.353C171.242 62.2042 170.674 63.6705 169.849 64.8344C169.419 65.4484 168.301 66.539 167.907 66.7497C167.476 66.9697 166.367 67.263 165.973 67.263C165.46 67.263 164.268 66.8689 163.709 66.5206C161.886 65.3843 160.612 62.8274 160.117 59.3358C159.897 57.8053 159.906 54.5978 160.117 53.1223C160.593 49.9515 161.739 47.4404 163.279 46.2307C164.406 45.3326 165.872 45.0394 167.146 45.4518Z" fill="#C072DC"/>
<path d="M191.496 44.9386C190.836 45.1036 189.847 45.7176 189.214 46.3591C188.912 46.6524 188.38 47.3397 188.032 47.8712L187.39 48.8427L187.363 47.0006L187.345 45.1586L187.033 45.2136C186.813 45.2594 186.52 45.4702 186.052 45.9376C184.669 47.2847 182.295 48.082 179.912 47.9995C179.317 47.9812 178.822 47.9995 178.822 48.0362C178.822 48.0729 178.849 48.1095 178.895 48.1095C178.932 48.1095 179.619 48.192 180.426 48.2928C181.232 48.3936 181.919 48.4761 181.965 48.4761C182.002 48.4761 182.02 52.5634 182.011 57.5671L181.983 66.6582L181.159 66.814C180.71 66.9056 180.224 66.9789 180.086 66.9789C179.949 66.9881 179.812 67.0248 179.784 67.0797C179.747 67.1439 181.406 67.1714 184.696 67.1714C187.427 67.1714 189.636 67.1439 189.599 67.1072C189.526 67.0339 188.71 66.869 187.821 66.7498L187.345 66.6857L187.363 59.4825L187.39 52.2793L187.821 51.1887C188.93 48.4211 189.553 47.303 190.506 46.3225C190.937 45.8826 191.322 45.5893 191.679 45.4244C192.238 45.1677 192.339 45.1769 193.146 45.5527C193.521 45.7268 194.447 46.909 194.667 47.5047C194.914 48.1828 195.043 49.3009 194.942 49.9882C194.786 51.0146 194.74 52.5542 194.85 52.9025C195.024 53.4248 195.483 53.9747 195.895 54.1672C196.197 54.2955 196.491 54.3413 197.242 54.3413C198.415 54.3413 198.873 54.158 199.634 53.4157C200.266 52.8017 200.395 52.3893 200.34 51.2254C200.303 50.4831 200.266 50.3364 199.909 49.64C198.993 47.8162 196.894 45.7726 195.318 45.1403C194.685 44.8837 194.53 44.8653 193.301 44.8378C192.431 44.8287 191.808 44.8562 191.496 44.9386Z" fill="#C072DC"/>
<path d="M80 2.43677C80 2.47265 80.1884 2.59823 80.4126 2.71483C80.9687 3.01084 81.5607 3.70151 81.8029 4.32043C82.2245 5.45062 82.2335 5.67487 82.2425 14.0796C82.2425 22.6457 82.2245 23.0135 81.7491 24.045C81.498 24.6101 80.906 25.2649 80.3857 25.5699C80.1704 25.6954 80 25.83 80 25.8748C80 25.9197 82.0092 25.9556 84.8437 25.9556C87.5077 25.9556 89.6874 25.9197 89.6874 25.8748C89.6874 25.839 89.4452 25.6506 89.1582 25.4712C88.4854 25.0586 88.028 24.4486 87.732 23.5517L87.4898 22.861L87.4629 18.6183L87.436 14.3845H87.9652C90.7279 14.3845 93.8942 15.2636 96.2623 16.6898C96.5403 16.8602 96.8094 16.9858 96.8543 16.9678C96.8901 16.9499 96.7107 16.3579 96.4327 15.6403C96.1636 14.9227 95.5895 13.3351 95.159 12.0972C94.7284 10.8684 94.3338 9.84582 94.2889 9.83685C94.2441 9.81891 94.1364 10.0611 94.0467 10.3661C93.67 11.7384 92.6564 12.6534 90.8983 13.2185C90.0731 13.4786 88.4854 13.7566 87.8127 13.7566H87.4449V8.37477V2.9929H88.6379C91.9119 2.9929 94.3517 3.79121 96.5314 5.56723C97.2938 6.19511 98.3702 7.41501 98.9263 8.27611C99.3299 8.90399 99.599 9.1103 99.5093 8.70666C99.4824 8.59902 99.2582 7.21767 99.016 5.63899C98.7738 4.0603 98.5496 2.67896 98.5226 2.56235L98.4778 2.36501H89.2389C84.153 2.36501 80 2.39192 80 2.43677Z" fill="#C072DC"/>
<path d="M129.699 8.64388C128.802 8.91297 127.726 9.01164 125.304 9.06546C124.057 9.09236 123.053 9.15515 123.062 9.19103C123.079 9.23588 123.313 9.39734 123.582 9.55879C124.479 10.097 125.008 11.0747 125.205 12.5457C125.259 13.0032 125.286 14.9765 125.259 18.0173C125.232 22.2241 125.205 22.8341 125.071 23.3005C124.739 24.4128 124.156 25.2111 123.384 25.6057C123.196 25.7044 123.044 25.821 123.044 25.8659C123.044 25.9197 124.784 25.9556 127.887 25.9556C130.991 25.9556 132.731 25.9197 132.731 25.8659C132.731 25.821 132.57 25.6954 132.363 25.5968C131.843 25.3277 131.278 24.7267 131.009 24.1526C130.524 23.1391 130.489 22.7085 130.489 17.5598V12.8417L130.722 12.3843C131.816 10.1867 133.969 8.80533 135.494 9.30764C136.068 9.50497 136.588 10.0521 136.848 10.7428C137.27 11.864 137.324 12.6175 137.386 17.524L137.449 22.1434L137.673 22.7803C138.265 24.4128 139.476 25.4533 141.216 25.821C141.907 25.9645 144.84 26.0094 144.84 25.8748C144.84 25.83 144.625 25.6685 144.356 25.516C143.827 25.22 143.306 24.6549 143.082 24.1078C142.687 23.1839 142.67 22.9597 142.598 19.4076C142.526 15.6941 142.436 14.9138 141.934 13.4337C141.055 10.8415 139.252 9.05649 137.036 8.59006C136.131 8.40169 134.417 8.46448 133.718 8.71563C132.327 9.20897 131.502 9.86377 130.641 11.1554C130.497 11.3617 130.489 11.3079 130.489 9.91759C130.489 8.8143 130.462 8.46448 130.381 8.47345C130.318 8.48242 130.013 8.55418 129.699 8.64388Z" fill="#C072DC"/>
<path d="M99.9752 9.1731C99.9752 9.22692 100.226 9.38838 100.522 9.54983C101.581 10.1149 102.854 11.5411 103.563 12.9494C103.68 13.1647 104.433 15.1649 105.24 17.3805C106.819 21.686 107.07 22.269 107.734 23.157C108.712 24.4576 110.649 25.6237 112.156 25.83C112.838 25.9197 112.847 25.9197 112.497 26.7808C111.187 30.0368 109.16 32.5573 107.241 33.3108C105.752 33.8938 104.639 33.4633 104.092 32.0909C103.913 31.6335 103.886 31.4002 103.877 30.3956C103.877 29.4179 103.913 29.1219 104.083 28.5748C104.2 28.207 104.281 27.8751 104.263 27.8303C104.245 27.7854 103.258 28.3415 102.056 29.0591C99.5625 30.5481 99.733 30.279 100.585 31.4272C101.94 33.248 103.473 34.1719 105.312 34.2706C107.994 34.4141 110.246 32.6829 112.246 28.9156C112.945 27.606 113.457 26.3503 115.134 21.7846C115.986 19.4615 116.901 17.0934 117.161 16.5104C118.74 12.9942 120.31 10.7697 121.987 9.67541C122.364 9.43323 122.669 9.20001 122.669 9.16413C122.669 9.12825 120.489 9.09238 117.825 9.09238C114.713 9.09238 112.981 9.12825 112.981 9.18207C112.981 9.22692 113.197 9.37941 113.448 9.50499C114.067 9.81893 115.018 10.7877 115.376 11.4694C116.219 13.0839 116.336 15.434 115.681 17.9904C115.511 18.6362 113.412 24.4487 113.367 24.3948C113.259 24.2872 109.151 12.9045 108.981 12.2408C108.622 10.8235 108.748 9.9176 109.384 9.4422C109.537 9.33456 109.663 9.20898 109.663 9.16413C109.663 9.12825 107.483 9.09238 104.819 9.09238C101.85 9.09238 99.9752 9.12825 99.9752 9.1731Z" fill="#C072DC"/>
</svg>
