<svg width="60" height="60" viewBox="0 0 60 60" fill="none" xmlns="http://www.w3.org/2000/svg">
<g clip-path="url(#clip0_151_846)">
<rect x="39.7512" y="13" width="10.6951" height="42" transform="rotate(45.1019 39.7512 13)" fill="#C072DC"/>
<path d="M20.5113 39.6111C20.9695 40.0683 21.7115 40.0683 22.1683 39.6111C22.6267 39.1529 22.6267 38.4112 22.1683 37.9539C21.7115 37.4957 20.9695 37.4957 20.5113 37.9539C20.0545 38.4112 20.0545 39.1529 20.5113 39.6111ZM25.4845 36.296L36.6983 25.0748C37.1557 24.6169 37.1557 23.8749 36.6978 23.4172C36.2396 22.9599 35.4981 22.9604 35.0403 23.4176L23.8264 34.6388C23.3687 35.0966 23.3692 35.8386 23.8269 36.2963C24.2846 36.7537 25.0268 36.7537 25.4845 36.296Z" fill="black"/>
<path d="M18.4593 31.7197L8.36594 41.8129C8.2496 41.9298 8.15917 42.0698 8.10051 42.2239C8.09863 42.2277 8.09687 42.2313 8.09547 42.2349C7.16347 44.7554 4.33586 52.4009 3.22351 55.4084C3.14588 55.6188 3.13019 55.847 3.1783 56.066C3.22642 56.285 3.33632 56.4855 3.49497 56.644C3.65363 56.8024 3.85439 56.912 4.07345 56.9598C4.2925 57.0076 4.52067 56.9915 4.7309 56.9136L17.8888 52.0265C18.0463 51.9671 18.1897 51.8752 18.3095 51.757L28.4018 41.6646L46.3961 59.7609C46.5051 59.8704 46.6346 59.9574 46.7773 60.0167C46.9199 60.076 47.0729 60.1066 47.2274 60.1066H47.2284C47.3829 60.1063 47.5359 60.0756 47.6786 60.016C47.8212 59.9564 47.9507 59.8693 48.0596 59.7595L59.6603 48.0508C60.1144 47.5926 60.1125 46.8538 59.6566 46.3973L41.6632 28.4032L54.9123 15.1541C57.6607 12.409 57.6626 7.95665 54.9128 5.21013C52.1657 2.46173 47.7176 2.46126 44.9687 5.21013L31.7184 18.4605C31.039 17.7812 14.7422 1.48392 13.7181 0.4604C13.4992 0.241214 13.2023 0.117716 12.8925 0.116947C12.5827 0.116178 12.2852 0.238202 12.0652 0.456299L0.34738 12.0555C0.237476 12.1644 0.150199 12.2939 0.0905791 12.4366C0.0309592 12.5794 0.000175036 12.7325 7.44266e-07 12.8872C-0.000173547 13.0418 0.0302654 13.195 0.0895636 13.3379C0.148862 13.4808 0.235847 13.6105 0.345505 13.7196L18.4593 31.7197ZM32.5469 20.9467L32.5473 20.9462V20.9457L39.8552 13.6385L46.484 20.2678L39.1776 27.5737C39.1776 27.5742 39.1776 27.5742 39.1771 27.5742V27.5747L17.481 49.2708L10.8521 42.6415L32.5469 20.9467ZM43.9988 9.49474L50.6276 16.124L48.1416 18.6103L41.5123 11.9813L43.9988 9.49474ZM10.5276 52.2604L7.86976 49.6026L9.65922 44.7636L15.3611 50.4656L10.5276 52.2604ZM6.97492 52.0224L8.11047 53.1581L6.30695 53.8278L6.97492 52.0224ZM42.7244 32.779L37.7031 37.7993C37.2454 38.2565 37.2454 38.9986 37.7031 39.4563C38.1605 39.9142 38.9025 39.9142 39.3603 39.4568L44.3815 34.4365L47.9305 37.9856L44.5669 41.3488C44.1095 41.8065 44.1095 42.5485 44.5669 43.0063C45.0246 43.4641 45.7667 43.4636 46.2244 43.0063L49.588 39.6426L53.1376 43.1926L48.1169 48.2129C47.659 48.6702 47.659 49.4122 48.1169 49.8699C48.5741 50.3278 49.3162 50.3278 49.7739 49.8699L54.7952 44.8502L57.1746 47.23C47.2791 57.1168 47.226 57.2711 47.226 57.2711L30.0594 40.0071L40.0062 30.0602L42.7244 32.779ZM53.2557 6.86763C55.0877 8.69739 55.0885 11.665 53.2552 13.4966L52.2852 14.4665L45.6559 7.83771L46.6262 6.86728C48.4579 5.03528 51.4233 5.03388 53.2557 6.86763ZM15.5003 5.55712L10.48 10.576C10.0227 11.0333 10.0227 11.7753 10.48 12.2331C10.9378 12.6909 11.6799 12.6909 12.1376 12.2336L17.1579 7.21415L20.707 10.7638L17.3443 14.1255C16.8865 14.5833 16.8865 15.3253 17.3438 15.7831C17.8015 16.2404 18.5431 16.2409 19.0014 15.7831L22.3646 12.4208L25.6775 15.7342L20.658 20.754C20.2007 21.2117 20.2007 21.9538 20.658 22.4115C21.1158 22.8688 21.8578 22.8692 22.3156 22.411L27.335 17.3912L30.0613 20.1177L20.1164 30.0625L2.83586 12.89C2.83586 12.89 2.99828 12.8369 12.8855 2.94196L15.5003 5.55712Z" fill="black"/>
</g>
<defs>
<clipPath id="clip0_151_846">
<rect width="60" height="60" fill="white"/>
</clipPath>
</defs>
</svg>
