<svg width="60" height="60" viewBox="0 0 60 60" fill="none" xmlns="http://www.w3.org/2000/svg">
<g clip-path="url(#clip0_1_14)">
<ellipse cx="22" cy="32.5" rx="10" ry="9.5" fill="#C072DC"/>
<path d="M18.118 15.9758C18.248 15.9466 18.3709 15.8916 18.4794 15.8142C18.5879 15.7368 18.6798 15.6385 18.7497 15.525C18.8196 15.4116 18.8662 15.2853 18.8866 15.1536C18.9071 15.0219 18.901 14.8875 18.8687 14.7582C18.8365 14.6289 18.7787 14.5073 18.6988 14.4007C18.6189 14.294 18.5185 14.2044 18.4034 14.1371C18.2884 14.0698 18.1611 14.0262 18.0289 14.0088C17.8968 13.9914 17.7625 14.0006 17.634 14.0358C13.7372 15.0055 10.2773 17.2521 7.80621 20.4173C5.33511 23.5826 3.99514 27.4842 4.00001 31.4998C4.00001 31.7651 4.10537 32.0194 4.29291 32.207C4.48044 32.3945 4.7348 32.4998 5.00001 32.4998C5.26523 32.4998 5.51958 32.3945 5.70712 32.207C5.89466 32.0194 6.00001 31.7651 6.00001 31.4998C5.99571 27.9305 7.18667 24.4625 9.38296 21.6489C11.5793 18.8353 14.6544 16.8381 18.118 15.9758Z" fill="#212529"/>
<path d="M57 37.4999H44V31.4999C44.0082 27.0489 42.6558 22.7018 40.124 19.0409L40.667 12.2759C40.7058 11.7953 40.6281 11.3124 40.4407 10.8682C40.2532 10.424 39.9614 10.0315 39.59 9.72394C36.6992 7.37098 33.3618 5.62794 29.779 4.59994C29.2761 4.46134 28.7457 4.45729 28.2407 4.58822C27.7358 4.71915 27.2742 4.98044 26.902 5.34594L22.594 9.52894C22.4 9.52394 22.2 9.49994 22 9.49994C9.855 9.51394 0.014 19.3549 0 31.4999V49.4999C0.00158843 51.0908 0.63424 52.616 1.75911 53.7408C2.88399 54.8657 4.40919 55.4984 6 55.4999H37C38.6818 55.498 40.3068 54.8905 41.5775 53.7888C42.8482 52.687 43.6797 51.1645 43.92 49.4999H53V52.4999C53 53.2956 53.3161 54.0586 53.8787 54.6213C54.4413 55.1839 55.2043 55.4999 56 55.4999H57C57.7957 55.4999 58.5587 55.1839 59.1213 54.6213C59.6839 54.0586 60 53.2956 60 52.4999V40.4999C60 39.7043 59.6839 38.9412 59.1213 38.3786C58.5587 37.816 57.7957 37.4999 57 37.4999ZM28.3 6.77394C28.4193 6.65344 28.5683 6.56659 28.732 6.52217C28.8956 6.47774 29.0681 6.47732 29.232 6.52094C32.5528 7.47548 35.6461 9.09189 38.326 11.2729C38.4471 11.3763 38.5417 11.5071 38.6021 11.6544C38.6625 11.8017 38.6868 11.9613 38.673 12.1199L38.3 16.7619C38.052 16.4889 37.819 16.2049 37.557 15.9429C34.2238 12.6027 29.8975 10.4333 25.227 9.75994L28.3 6.77394ZM12 53.4999H6C4.93913 53.4999 3.92172 53.0785 3.17157 52.3284C2.42143 51.5782 2 50.5608 2 49.4999V40.4999C2 40.2347 2.10536 39.9804 2.29289 39.7928C2.48043 39.6053 2.73478 39.4999 3 39.4999H3.769C3.94838 39.5 4.12445 39.5483 4.27875 39.6398C4.43305 39.7313 4.5599 39.8626 4.646 40.0199C6.66228 43.7733 9.73184 46.8554 13.477 48.8869C13.6353 48.9714 13.7677 49.0974 13.8598 49.2514C13.9519 49.4053 14.0004 49.5815 14 49.7609V52.4999C14 52.7652 13.8946 53.0195 13.7071 53.207C13.5196 53.3946 13.2652 53.4999 13 53.4999H12ZM42 48.4999C41.9984 49.8255 41.4711 51.0964 40.5338 52.0337C39.5964 52.9711 38.3256 53.4984 37 53.4999H15.816C15.934 53.1799 15.996 52.8409 16 52.4999V49.7609C16.0027 49.2136 15.8539 48.6762 15.5701 48.2081C15.2863 47.7401 14.8786 47.3596 14.392 47.1089C11.0138 45.244 8.24043 42.4505 6.4 39.0589C6.14156 38.587 5.76096 38.1933 5.29807 37.919C4.83518 37.6447 4.30705 37.5 3.769 37.4999H3C2.659 37.5029 2.32 37.5659 2 37.6839V31.4999C2 20.4539 10.954 11.4999 22 11.4999C33.046 11.4999 42 20.4539 42 31.4999V48.4999ZM44 47.4999V39.4999H47V41.4999C47 41.7652 47.1054 42.0195 47.2929 42.207C47.4804 42.3946 47.7348 42.4999 48 42.4999C48.2652 42.4999 48.5196 42.3946 48.7071 42.207C48.8946 42.0195 49 41.7652 49 41.4999V39.4999H53V47.4999H44ZM58 52.4999C58 52.7652 57.8946 53.0195 57.7071 53.207C57.5196 53.3946 57.2652 53.4999 57 53.4999H56C55.7348 53.4999 55.4804 53.3946 55.2929 53.207C55.1054 53.0195 55 52.7652 55 52.4999V39.4999H57C57.2652 39.4999 57.5196 39.6053 57.7071 39.7928C57.8946 39.9804 58 40.2347 58 40.4999V52.4999Z" fill="#212529"/>
<path d="M22 15.5C22.5523 15.5 23 15.0523 23 14.5C23 13.9477 22.5523 13.5 22 13.5C21.4477 13.5 21 13.9477 21 14.5C21 15.0523 21.4477 15.5 22 15.5Z" fill="#212529"/>
<path d="M32 47.5C32 48.5609 32.4214 49.5783 33.1716 50.3284C33.9217 51.0786 34.9391 51.5 36 51.5C37.0609 51.5 38.0783 51.0786 38.8284 50.3284C39.5786 49.5783 40 48.5609 40 47.5C40 46.4391 39.5786 45.4217 38.8284 44.6716C38.0783 43.9214 37.0609 43.5 36 43.5C34.9391 43.5 33.9217 43.9214 33.1716 44.6716C32.4214 45.4217 32 46.4391 32 47.5ZM38 47.5C38 48.0304 37.7893 48.5391 37.4142 48.9142C37.0391 49.2893 36.5304 49.5 36 49.5C35.4696 49.5 34.9609 49.2893 34.5858 48.9142C34.2107 48.5391 34 48.0304 34 47.5C34 46.9696 34.2107 46.4609 34.5858 46.0858C34.9609 45.7107 35.4696 45.5 36 45.5C36.5304 45.5 37.0391 45.7107 37.4142 46.0858C37.7893 46.4609 38 46.9696 38 47.5ZM22 21.5C15.925 21.5 11 26.425 11 32.5C11 38.575 15.925 43.5 22 43.5C28.075 43.5 33 38.575 33 32.5C32.993 26.428 28.072 21.507 22 21.5ZM22 41.5C20.22 41.5 18.4799 40.9722 16.9999 39.9832C15.5198 38.9943 14.3663 37.5887 13.6851 35.9441C13.0039 34.2996 12.8257 32.49 13.1729 30.7442C13.5202 28.9984 14.3774 27.3947 15.636 26.136C16.8947 24.8774 18.4984 24.0202 20.2442 23.6729C21.99 23.3257 23.7996 23.5039 25.4442 24.1851C27.0887 24.8663 28.4943 26.0198 29.4832 27.4999C30.4722 28.9799 31 30.72 31 32.5C30.9974 34.8861 30.0483 37.1738 28.361 38.861C26.6738 40.5483 24.3861 41.4974 22 41.5Z" fill="#212529"/>
</g>
<defs>
<clipPath id="clip0_1_14">
<rect width="60" height="60" fill="white"/>
</clipPath>
</defs>
</svg>
