<svg width="60" height="60" viewBox="0 0 60 60" fill="none" xmlns="http://www.w3.org/2000/svg">
<path d="M22 40.5C22 38.8431 23.3431 37.5 25 37.5H52C53.6569 37.5 55 38.8431 55 40.5V49.5C55 51.1569 53.6569 52.5 52 52.5H44.3361C43.4856 52.5 42.6751 52.861 42.1062 53.4931L38.5 57.5L35.4007 53.6259C34.8314 52.9143 33.9695 52.5 33.0581 52.5H25C23.3431 52.5 22 51.1569 22 49.5V40.5Z" fill="#C072DC"/>
<path d="M13.3745 15.5121C13.61 15.5121 13.8357 15.4186 14.0022 15.2521C14.1687 15.0856 14.2622 14.8599 14.2622 14.6244C14.2622 14.389 14.1687 14.1632 14.0022 13.9967C13.8357 13.8303 13.61 13.7367 13.3745 13.7367H7.89073C7.6553 13.7367 7.42951 13.8303 7.26304 13.9967C7.09656 14.1632 7.00304 14.389 7.00304 14.6244C7.00304 14.8599 7.09656 15.0856 7.26304 15.2521C7.42951 15.4186 7.6553 15.5121 7.89073 15.5121H13.3745ZM13.4035 19.2683H10.6497C10.4142 19.2683 10.1885 19.3619 10.022 19.5283C9.85551 19.6948 9.76198 19.9206 9.76198 20.156C9.76198 20.3915 9.85551 20.6172 10.022 20.7837C10.1885 20.9502 10.4142 21.0437 10.6497 21.0437H13.4035C13.6389 21.0437 13.8647 20.9502 14.0312 20.7837C14.1976 20.6172 14.2912 20.3915 14.2912 20.156C14.2912 19.9206 14.1976 19.6948 14.0312 19.5283C13.8647 19.3619 13.6389 19.2683 13.4035 19.2683ZM0.706787 25.6872C0.706818 25.9226 0.800353 26.1483 0.966821 26.3148C1.13329 26.4813 1.35906 26.5748 1.59448 26.5749H13.2978C13.5332 26.5749 13.759 26.4813 13.9255 26.3149C14.0919 26.1484 14.1855 25.9226 14.1855 25.6872C14.1855 25.4517 14.0919 25.2259 13.9255 25.0595C13.759 24.893 13.5332 24.7995 13.2978 24.7995H1.59437C1.35895 24.7995 1.1332 24.893 0.966746 25.0595C0.800296 25.226 0.706787 25.4517 0.706787 25.6872ZM9.87179 30.3307C9.63636 30.3307 9.41057 30.4242 9.24409 30.5907C9.07762 30.7572 8.98409 30.983 8.98409 31.2184C8.98409 31.4538 9.07762 31.6796 9.24409 31.8461C9.41057 32.0126 9.63636 32.1061 9.87179 32.1061H13.3317C13.5672 32.1061 13.793 32.0126 13.9594 31.8461C14.1259 31.6796 14.2194 31.4538 14.2194 31.2184C14.2194 30.983 14.1259 30.7572 13.9594 30.5907C13.793 30.4242 13.5672 30.3307 13.3317 30.3307H9.87179ZM14.223 36.7498C14.2229 36.5144 14.1294 36.2886 13.9629 36.1221C13.7965 35.9556 13.5707 35.8621 13.3353 35.8621H8.45651C8.22108 35.8621 7.99529 35.9556 7.82882 36.1221C7.66234 36.2886 7.56882 36.5143 7.56882 36.7498C7.56882 36.9852 7.66234 37.211 7.82882 37.3775C7.99529 37.5439 8.22108 37.6375 8.45651 37.6375H13.3353C13.5707 37.6375 13.7965 37.5439 13.963 37.3775C14.1294 37.211 14.223 36.9852 14.223 36.7498ZM59.293 37.3587V14.0255C59.293 13.7332 59.1181 13.4093 58.8428 13.2488L38.8212 1.57723C38.6854 1.49803 38.5311 1.4563 38.3739 1.4563C38.2167 1.4563 38.0624 1.49803 37.9266 1.57723L17.9055 13.2488C17.6432 13.4016 17.4552 13.6907 17.4552 14.0255V37.3587C17.4552 37.5139 17.4959 37.6665 17.5732 37.801C17.6506 37.9356 17.762 38.0475 17.8962 38.1256L21.2717 40.0923C21.1976 40.6751 21.2488 40.2241 21.233 49.2636C21.233 51.6556 23.1788 53.6015 25.5708 53.6015H33.8251L36.9453 57.6887C37.3596 58.232 37.9889 58.5435 38.6726 58.5435C39.3557 58.5435 39.9856 58.2316 40.4005 57.6879L43.5155 53.6015H51.7692C54.1613 53.6015 56.1071 51.653 56.1071 49.2579C56.0775 40.2667 56.1739 40.5339 56.0201 39.7757L58.8522 38.1256C58.9864 38.0475 59.0977 37.9356 59.1751 37.801C59.2524 37.6664 59.2931 37.5139 59.293 37.3587ZM56.633 14.0156L49.0541 18.4336L30.7951 7.78969L38.3739 3.37161L56.633 14.0156ZM38.3739 24.6597L20.1154 14.0156L29.0323 8.81743L47.2913 19.4613L38.3739 24.6597ZM19.2305 36.8487V15.5551L37.4861 26.1974V36.2979H25.5766C24.0076 36.2979 22.6344 37.137 21.871 38.3871L19.2305 36.8487ZM54.3317 49.2579C54.3317 50.6741 53.1822 51.8262 51.7692 51.8262H43.0757C42.939 51.8262 42.8042 51.8578 42.6817 51.9184C42.5592 51.9791 42.4524 52.0672 42.3695 52.1759L38.9888 56.6116C38.8847 56.7481 38.7461 56.7682 38.6721 56.7682C38.611 56.7687 38.5505 56.7548 38.4957 56.7277C38.4409 56.7005 38.3932 56.6609 38.3566 56.6119L34.97 52.1753C34.8871 52.0668 34.7803 51.9788 34.6579 51.9183C34.5356 51.8578 34.4009 51.8262 34.2644 51.8262H25.5708C24.1578 51.8262 23.0084 50.6767 23.0084 49.2638V40.6416C23.0084 39.2254 24.1607 38.0733 25.5767 38.0733H51.7694C53.1824 38.0733 54.3318 39.2254 54.3318 40.6416L54.3317 49.2579ZM55.3069 38.1366C54.5205 37.0261 53.2293 36.2979 51.7692 36.2979H39.2615V26.1974L48.2001 20.9868V25.6873C48.2039 25.9202 48.299 26.1423 48.4651 26.3057C48.6312 26.4691 48.8548 26.5607 49.0878 26.5607C49.3207 26.5607 49.5444 26.4691 49.7104 26.3057C49.8765 26.1423 49.9717 25.9202 49.9755 25.6873V19.9519L57.5178 15.5551V36.8483L55.3069 38.1366Z" fill="black"/>
<path d="M30.2576 41.0596H26.8369C26.6015 41.0596 26.3757 41.1531 26.2092 41.3196C26.0427 41.486 25.9492 41.7118 25.9492 41.9473V47.9517C25.953 48.1847 26.0482 48.4068 26.2143 48.5702C26.3803 48.7335 26.6039 48.8251 26.8369 48.8251C27.0699 48.8251 27.2935 48.7335 27.4596 48.5702C27.6256 48.4068 27.7208 48.1847 27.7246 47.9517V46.3648H29.7739C30.0093 46.3648 30.2351 46.2712 30.4016 46.1048C30.568 45.9383 30.6616 45.7125 30.6616 45.4771C30.6616 45.2416 30.568 45.0158 30.4016 44.8494C30.2351 44.6829 30.0093 44.5894 29.7739 44.5894H27.7246V42.8348H30.2576C30.4913 42.8322 30.7144 42.7375 30.8787 42.5713C31.043 42.4051 31.1351 42.1809 31.1351 41.9472C31.1351 41.7135 31.043 41.4893 30.8787 41.3231C30.7144 41.157 30.4913 41.0623 30.2576 41.0596ZM43.7294 42.835C43.9648 42.835 44.1906 42.7414 44.3571 42.575C44.5235 42.4085 44.6171 42.1827 44.6171 41.9473C44.6171 41.7118 44.5235 41.486 44.3571 41.3196C44.1906 41.1531 43.9648 41.0596 43.7294 41.0596H40.3087C40.0732 41.0596 39.8475 41.1531 39.681 41.3196C39.5145 41.486 39.421 41.7118 39.421 41.9473V47.9517C39.421 48.1871 39.5145 48.4129 39.681 48.5794C39.8475 48.7458 40.0732 48.8394 40.3087 48.8394H43.7294C43.9648 48.8394 44.1906 48.7459 44.3571 48.5794C44.5235 48.4129 44.6171 48.1871 44.6171 47.9517C44.6171 47.7163 44.5235 47.4905 44.3571 47.324C44.1906 47.1575 43.9648 47.064 43.7294 47.064H41.1964V45.8371H43.2456C43.4811 45.8371 43.7068 45.7435 43.8733 45.5771C44.0398 45.4106 44.1333 45.1848 44.1333 44.9494C44.1333 44.7139 44.0398 44.4882 43.8733 44.3217C43.7068 44.1552 43.4811 44.0617 43.2456 44.0617H41.1964V42.8347H43.7294V42.835ZM50.5025 42.835C50.7379 42.835 50.9637 42.7414 51.1302 42.575C51.2966 42.4085 51.3902 42.1827 51.3902 41.9473C51.3902 41.7118 51.2966 41.486 51.1302 41.3196C50.9637 41.1531 50.7379 41.0596 50.5025 41.0596H47.0818C46.8463 41.0596 46.6205 41.1531 46.4541 41.3196C46.2876 41.486 46.1941 41.7118 46.1941 41.9473V47.9517C46.1941 48.1871 46.2876 48.4129 46.4541 48.5794C46.6206 48.7458 46.8463 48.8394 47.0818 48.8394H50.5025C50.7379 48.8394 50.9637 48.7459 51.1302 48.5794C51.2966 48.4129 51.3902 48.1871 51.3902 47.9517C51.3902 47.7163 51.2966 47.4905 51.1302 47.324C50.9637 47.1575 50.7379 47.064 50.5025 47.064H47.9695V45.8371H50.0187C50.2541 45.8371 50.4799 45.7435 50.6464 45.5771C50.8129 45.4106 50.9064 45.1848 50.9064 44.9494C50.9064 44.7139 50.8129 44.4882 50.6464 44.3217C50.4799 44.1552 50.2541 44.0617 50.0187 44.0617H47.9695V42.8347H50.5025V42.835ZM36.2385 45.6452C36.9846 45.2232 37.4955 44.4319 37.4955 43.5155C37.4955 42.1614 36.3934 41.0597 35.0393 41.0597H33.1871C32.9516 41.0597 32.7258 41.1532 32.5594 41.3197C32.3929 41.4862 32.2994 41.712 32.2994 41.9474V47.9518C32.3032 48.1848 32.3984 48.4069 32.5644 48.5703C32.7305 48.7337 32.9541 48.8252 33.1871 48.8252C33.42 48.8252 33.6437 48.7337 33.8097 48.5703C33.9758 48.4069 34.071 48.1848 34.0748 47.9518V45.9714H34.3165L35.9888 48.4486C36.2646 48.8569 36.8175 48.9606 37.2209 48.6875C37.3176 48.6224 37.4005 48.5388 37.4648 48.4416C37.5292 48.3444 37.5738 48.2354 37.596 48.121C37.6182 48.0065 37.6177 47.8888 37.5944 47.7746C37.5711 47.6603 37.5255 47.5518 37.4602 47.4552L36.2385 45.6452ZM34.0748 42.835H35.0393C35.4149 42.835 35.7201 43.1401 35.7201 43.5155C35.7201 43.8908 35.4149 44.196 35.0393 44.196H34.0748V42.835Z" fill="white"/>
</svg>
