<svg width="60" height="60" viewBox="0 0 60 60" fill="none" xmlns="http://www.w3.org/2000/svg">
<path d="M32.8242 20.586V22.4687M40.3555 37.5313V39.414M40.3555 20.586L32.8242 39.414M20.5536 4.80609C21.4386 5.00469 22.3585 4.9857 23.2345 4.75073C24.1105 4.51577 24.9164 4.07184 25.5832 3.45703C26.7529 2.40176 28.3018 1.75781 30 1.75781C31.6982 1.75781 33.2471 2.40176 34.4161 3.45797C35.0831 4.07251 35.8892 4.5161 36.7653 4.75072C37.6414 4.98534 38.5613 5.00398 39.4461 4.80504C40.987 4.47562 42.6504 4.69207 44.1211 5.54121C45.5918 6.39035 46.6114 7.72242 47.0954 9.22207C47.3661 10.0877 47.8425 10.8748 48.4838 11.516C49.1252 12.1573 49.9125 12.6335 50.7782 12.9039C52.2775 13.3887 53.6094 14.4082 54.4586 15.8787C55.3076 17.3491 55.5246 19.0126 55.194 20.5537C54.9955 21.4386 55.0144 22.3584 55.2493 23.2342C55.4842 24.1101 55.928 24.916 56.5426 25.5827C57.5985 26.7531 58.2422 28.3017 58.2422 30C58.2422 31.6983 57.5985 33.2469 56.5418 34.4162C55.9273 35.0832 55.4838 35.8893 55.2492 36.7654C55.0146 37.6414 54.9959 38.5613 55.1948 39.4461C55.5245 40.9871 55.3076 42.6506 54.4584 44.1211C53.6093 45.5916 52.2773 46.6111 50.7777 47.0951C49.9121 47.3656 49.125 47.842 48.4838 48.4834C47.8426 49.1248 47.3665 49.9121 47.0963 50.7778C46.6113 52.2775 45.5917 53.6095 44.121 54.4587C42.6503 55.3078 40.9869 55.5244 39.4463 55.1939C38.5614 54.9954 37.6415 55.0143 36.7656 55.2491C35.8896 55.4839 35.0836 55.9275 34.4167 56.542C33.2471 57.5984 31.6982 58.2422 30 58.2422C28.3018 58.2422 26.7529 57.5984 25.5839 56.542C24.9169 55.9275 24.1108 55.4839 23.2347 55.2493C22.3586 55.0146 21.4387 54.996 20.5539 55.1948C19.013 55.5244 17.3496 55.3078 15.8789 54.4587C14.4082 53.6095 13.3886 52.2775 12.9046 50.7778C12.6341 49.9121 12.1577 49.1249 11.5163 48.4837C10.8749 47.8424 10.0876 47.3663 9.22184 47.096C7.72254 46.6112 6.39059 45.5917 5.54145 44.1211C4.69242 42.6506 4.47539 40.9871 4.80598 39.4461C5.00459 38.5613 4.98564 37.6415 4.75076 36.7656C4.51587 35.8897 4.07206 35.0839 3.45738 34.4171C2.40152 33.2469 1.75781 31.6983 1.75781 30C1.75781 28.3017 2.40152 26.7531 3.4582 25.5839C4.07268 24.9169 4.51623 24.1108 4.75082 23.2347C4.98542 22.3587 5.00406 21.4388 4.80516 20.554C4.47551 19.013 4.69242 17.3495 5.54156 15.8789C6.3907 14.4084 7.72266 13.3889 9.2223 12.9041C10.0879 12.6337 10.875 12.1575 11.5162 11.5163C12.1573 10.875 12.6335 10.0879 12.9037 9.2223C13.3887 7.72266 14.4083 6.39059 15.879 5.54145C17.3496 4.69219 19.013 4.47563 20.5536 4.80609Z" stroke="black" stroke-miterlimit="10" stroke-linecap="round" stroke-linejoin="round"/>
<path d="M26.2344 24.2104C26.2344 22.1309 24.5484 20.4448 22.4688 20.4448C20.3892 20.4448 18.7031 22.1309 18.7031 24.2104V35.7897C18.7031 37.8693 20.3891 39.5553 22.4687 39.5553C24.5483 39.5553 26.2343 37.8692 26.2343 35.7897L26.2344 24.2104Z" fill="#C072DC" stroke="black" stroke-miterlimit="10" stroke-linecap="round" stroke-linejoin="round"/>
</svg>
