<svg width="21" height="20" viewBox="0 0 21 20" fill="none" xmlns="http://www.w3.org/2000/svg">
<g clip-path="url(#clip0_320_373)">
<path d="M19.9557 14.678L17.1646 11.8869C16.1678 10.8901 14.4732 11.2889 14.0745 12.5847C13.7754 13.4818 12.7786 13.9803 11.8815 13.7809C9.8879 13.2824 7.19652 10.6908 6.69812 8.59746C6.39908 7.70029 6.99716 6.70349 7.89429 6.40448C9.19014 6.00576 9.58886 4.31119 8.59205 3.31438L5.80099 0.523323C5.00355 -0.174441 3.80738 -0.174441 3.10961 0.523323L1.21568 2.41726C-0.678256 4.41087 1.41504 9.69394 6.10003 14.3789C10.785 19.0639 16.0681 21.2569 18.0617 19.2633L19.9557 17.3694C20.6535 16.5719 20.6535 15.3757 19.9557 14.678Z" fill="#C072DC"/>
</g>
<defs>
<clipPath id="clip0_320_373">
<rect width="20" height="20" fill="white" transform="translate(0.5)"/>
</clipPath>
</defs>
</svg>
