<svg width="60" height="60" viewBox="0 0 60 60" fill="none" xmlns="http://www.w3.org/2000/svg">
<path d="M27 22L30 16.5L32 21.5L37 22L34 25.5L35.5 31.5L30.5 29L25 31.5L26.5 26L22.5 22H27Z" fill="#C072DC"/>
<path d="M46.7856 39.3729C50.5718 35.2876 52.8904 29.8238 52.8904 23.8277C52.8902 11.2061 42.6218 0.9375 30 0.9375C17.3782 0.9375 7.10977 11.2061 7.10977 23.8277C7.10977 30.2858 9.79899 36.1269 14.1152 40.2926L8.47372 52.4099C8.40138 52.5652 8.373 52.7374 8.39165 52.9077C8.4103 53.078 8.47527 53.24 8.5795 53.376C8.68374 53.512 8.82325 53.6168 8.98287 53.6791C9.1425 53.7413 9.31614 53.7587 9.48493 53.7292L16.4081 52.5195L19.9392 58.5961C20.0253 58.7443 20.1503 58.8661 20.3007 58.9482C20.4511 59.0303 20.6212 59.0696 20.7923 59.0618C20.9635 59.054 21.1293 58.9995 21.2717 58.9041C21.414 58.8087 21.5275 58.6761 21.5998 58.5207L27.1759 46.5437C28.1016 46.6581 29.0439 46.718 30 46.718C31.3752 46.718 32.7224 46.5959 34.0315 46.3623L38.24 56.1335C38.3078 56.2909 38.4174 56.4267 38.5569 56.5261C38.6965 56.6256 38.8606 56.6849 39.0315 56.6976C39.2024 56.7103 39.3735 56.6759 39.5262 56.5982C39.6789 56.5205 39.8074 56.4024 39.8977 56.2568L43.6035 50.2852L50.4885 51.6952C50.6563 51.7297 50.8304 51.7175 50.9918 51.6599C51.1532 51.6023 51.2957 51.5015 51.4037 51.3684C51.5118 51.2356 51.5815 51.0756 51.6051 50.9059C51.6287 50.7362 51.6054 50.5633 51.5377 50.406L46.7856 39.3729ZM20.6581 56.1011L17.7011 51.0124C17.6047 50.8468 17.4598 50.7146 17.2861 50.6337C17.1123 50.5528 16.9179 50.5271 16.7291 50.56L10.9316 51.5731L15.5794 41.5902C18.3458 43.8404 21.6456 45.4586 25.2572 46.2225L20.6581 56.1011ZM8.98477 23.8277C8.98477 12.2399 18.4122 2.8125 30 2.8125C41.5879 2.8125 51.0152 12.2399 51.0152 23.8277C51.0152 35.4156 41.5879 44.843 30 44.843C18.4122 44.843 8.98477 35.4156 8.98477 23.8277ZM43.3395 48.3175C43.1517 48.2789 42.9565 48.2988 42.7805 48.3747C42.6044 48.4505 42.4558 48.5786 42.3549 48.7416L39.2516 53.7422L35.8943 45.9472C39.4638 44.9952 42.6932 43.2011 45.3543 40.7898L49.105 49.4982L43.3395 48.3175ZM45.7559 30.2793C45.711 29.904 45.6691 29.5702 45.6315 29.2704C45.4787 28.0523 45.4021 27.4412 45.4874 26.9577C45.5727 26.4743 45.8537 25.926 46.4139 24.8338C46.5517 24.565 46.7052 24.2655 46.8756 23.9284C47.7642 22.1705 47.3963 20.0836 45.96 18.7356C45.6845 18.477 45.4378 18.2482 45.2163 18.0427C44.3165 17.2078 43.8647 16.7889 43.6193 16.3637C43.3739 15.9387 43.2368 15.338 42.9639 14.1413C42.8966 13.8466 42.8218 13.5188 42.7356 13.1508C42.2864 11.2329 40.663 9.87082 38.6963 9.76137C38.319 9.74027 37.9831 9.72363 37.6813 9.70863C36.4553 9.64758 35.8399 9.61699 35.3786 9.44906C34.9173 9.28102 34.4262 8.90906 33.4478 8.16773C33.178 7.96286 32.9075 7.75883 32.6364 7.55566C31.0594 6.37535 28.9405 6.37535 27.3634 7.55566C27.0608 7.78207 26.7927 7.98527 26.5519 8.16773C25.5735 8.90895 25.0824 9.28102 24.6211 9.44906C24.1597 9.61699 23.5444 9.64746 22.3185 9.70863C22.0167 9.72363 21.6807 9.74039 21.3035 9.76137C19.3368 9.87082 17.7135 11.2329 17.2642 13.1508C17.1781 13.5186 17.1032 13.8466 17.036 14.1411C16.763 15.3379 16.6259 15.9386 16.3805 16.3637C16.1351 16.7889 15.6833 17.2078 14.7836 18.0425C14.5349 18.2728 14.287 18.5038 14.0398 18.7356C12.6035 20.0836 12.2356 22.1705 13.1242 23.9284C13.2947 24.2655 13.4481 24.565 13.5859 24.8338C14.1461 25.926 14.4272 26.4743 14.5124 26.9577C14.5977 27.4412 14.5209 28.0525 14.3682 29.2704C14.3306 29.5703 14.2888 29.904 14.2439 30.2793C14.0101 32.235 15.0696 34.0702 16.8804 34.8457C17.2277 34.9945 17.5378 35.1252 17.8163 35.2425C18.9473 35.7191 19.5151 35.9584 19.8912 36.274C20.2672 36.5896 20.6015 37.1071 21.2673 38.1383C21.4311 38.3922 21.6137 38.6747 21.8206 38.991C22.6534 40.2645 24.0311 40.9867 25.4841 40.9866C25.9119 40.9866 26.3466 40.9239 26.7755 40.7943C27.1371 40.6849 27.4586 40.5858 27.7472 40.4967C28.9201 40.1347 29.5089 39.9531 29.9998 39.9531C30.4907 39.9531 31.0794 40.1347 32.2525 40.4967C32.5411 40.5858 32.8627 40.6849 33.2242 40.7943C35.1096 41.3641 37.101 40.6395 38.1791 38.9909C38.3859 38.6746 38.5684 38.392 38.7324 38.1382C39.3982 37.107 39.7324 36.5893 40.1085 36.2739C40.4845 35.9584 41.0523 35.7191 42.1834 35.2424C42.4618 35.1251 42.7719 34.9944 43.1193 34.8456C44.9302 34.0702 45.9897 32.235 45.7559 30.2793ZM44.7455 23.9781C43.4559 26.4929 43.4195 26.6995 43.7712 29.5036C43.8083 29.8001 43.8498 30.1304 43.8941 30.5017C44.0304 31.6416 43.4365 32.6701 42.3812 33.1221C42.0375 33.2693 41.7308 33.3984 41.4553 33.5146C38.8511 34.612 38.6904 34.7469 37.1574 37.121C36.9758 37.4028 36.7934 37.6839 36.6101 37.9645C35.9818 38.9252 34.8657 39.3315 33.7668 38.9993C33.409 38.8911 33.0909 38.793 32.8054 38.7049C30.1049 37.8716 29.8951 37.8715 27.1945 38.7049C26.909 38.793 26.5909 38.8911 26.2331 38.9993C25.134 39.3318 24.0182 38.9252 23.3898 37.9645C23.1852 37.6518 23.0046 37.372 22.8425 37.121C21.3095 34.7468 21.1488 34.612 18.5446 33.5146C18.2691 33.3986 17.9624 33.2693 17.6187 33.1221C16.5634 32.6701 15.9695 31.6414 16.1058 30.5017C16.1501 30.1304 16.1916 29.8002 16.2288 29.5036C16.5805 26.6994 16.5441 26.4929 15.2545 23.9781C15.1181 23.7121 14.9664 23.4159 14.7977 23.0823C14.2799 22.0579 14.486 20.8882 15.3231 20.1026C15.5958 19.8466 15.8398 19.6204 16.0589 19.417C18.1307 17.495 18.2356 17.3134 18.8641 14.558C18.9306 14.2666 19.0047 13.9421 19.0898 13.5782C19.3516 12.4604 20.2615 11.697 21.4077 11.6332C21.7809 11.6125 22.1133 11.5959 22.4118 11.5811C25.2345 11.4405 25.4316 11.3687 27.6843 9.66211C27.9225 9.48164 28.1878 9.28066 28.4871 9.0566C28.9466 8.71266 29.4734 8.54074 30 8.54074C30.5266 8.54074 31.0533 8.71277 31.5129 9.0566C31.8122 9.28055 32.0774 9.48164 32.3156 9.66211C34.5683 11.3687 34.7654 11.4405 37.5881 11.5811C37.8866 11.5959 38.2191 11.6126 38.5922 11.6332C39.7384 11.697 40.6483 12.4604 40.91 13.5782C40.9954 13.9421 41.0693 14.2668 41.1359 14.5581C41.7645 17.3134 41.8693 17.495 43.9412 19.417C44.1604 19.6204 44.4043 19.8468 44.6769 20.1026C45.514 20.8882 45.7201 22.0579 45.2023 23.0823C45.051 23.3814 44.8987 23.68 44.7455 23.9781ZM38.0429 20.7019L33.0294 20.4574L31.2478 15.7649C31.0497 15.2428 30.5598 14.9054 30 14.9054C29.4401 14.9054 28.9502 15.2428 28.7522 15.7649L26.9706 20.4574L21.9572 20.7019C21.3984 20.7289 20.9256 21.0902 20.7526 21.6224C20.5797 22.1545 20.7497 22.7248 21.1857 23.0754L25.0981 26.2199L23.7812 31.0635C23.6345 31.6032 23.8322 32.1646 24.2848 32.4934C24.5123 32.66 24.7868 32.75 25.0688 32.7505C25.322 32.7505 25.5758 32.6773 25.8002 32.5303L30 29.7814L34.1997 32.5305C34.6678 32.837 35.2627 32.8222 35.7154 32.4936C36.1679 32.1647 36.3655 31.6034 36.2187 31.0637L34.902 26.2201L38.8144 23.0756C39.2504 22.725 39.4204 22.1548 39.2474 21.6226C39.0744 21.0905 38.6016 20.7291 38.0429 20.7019ZM33.4516 24.9802C33.2492 25.1428 33.0985 25.361 33.0183 25.608C32.938 25.8549 32.9316 26.12 32.9998 26.3706L34.0361 30.1825L30.731 28.0191C30.5138 27.8768 30.2597 27.801 30 27.8009C29.7402 27.8009 29.4862 27.8767 29.2689 28.0189L25.9637 30.1825L27.0002 26.3701C27.0682 26.1196 27.0617 25.8546 26.9814 25.6078C26.9011 25.3609 26.7506 25.1428 26.5482 24.9802L23.4693 22.5054L27.4145 22.313C27.674 22.3005 27.9242 22.2125 28.1344 22.0599C28.3446 21.9072 28.5057 21.6965 28.5979 21.4536L30 17.7607L31.4022 21.4539C31.4943 21.6967 31.6553 21.9073 31.8654 22.0599C32.0756 22.2125 32.3257 22.3005 32.585 22.3131L36.5306 22.5055L33.4516 24.9802Z" fill="black"/>
</svg>
