<svg width="208" height="40" viewBox="0 0 208 40" fill="none" xmlns="http://www.w3.org/2000/svg">
<path d="M13.1716 4.62849C9.00737 5.07124 5.34574 7.00975 3.04825 9.97734C0.798624 12.8851 -0.266359 16.822 0.0567254 20.9622C0.415708 25.4016 2.10293 29.4582 5.13035 33.2155C5.94405 34.2087 8.27744 36.5421 9.39028 37.4635L10.0484 38.002L9.71337 37.4635C9.01933 36.3267 8.16974 34.5198 7.78683 33.3471C7.06886 31.2052 6.9492 30.3795 6.9492 27.7111C6.9492 25.0427 7.06886 24.217 7.78683 22.0751C10.0724 15.1946 16.0434 11.1261 18.3888 14.8356C19.5136 16.6066 19.6931 19.7776 18.9033 24.1691C18.7478 25.0546 18.6401 25.8085 18.676 25.8324C18.6999 25.8683 19.035 25.6529 19.4179 25.3777C22.2658 23.2477 24.9701 18.7126 25.5565 15.0869C26.3582 9.98931 22.912 5.77724 17.1204 4.80799C16.2828 4.66439 13.8656 4.5567 13.1716 4.62849Z" fill="#FF6D2C"/>
<path d="M25.7749 3.86821C26.8489 5.55887 27.7527 7.73156 28.2348 9.75683C28.6517 11.5081 28.719 14.9776 28.37 16.7318C27.7053 20.1077 26.2664 23.0559 24.226 25.2258C22.3144 27.2496 20.1417 28.1535 18.6811 27.5115C16.4122 26.5382 15.7044 22.746 16.6679 16.8868C16.8075 16.0582 16.9017 15.3622 16.8775 15.3507C16.8161 15.2682 15.7666 16.0784 15.0618 16.7623C13.7105 18.0571 11.9442 20.7842 11.122 22.8228C10.1627 25.1992 9.87615 27.7061 10.3322 29.6242C11.0991 32.757 13.7784 35.1466 17.5904 36.0781C22.6891 37.3197 28.4379 35.6763 31.8374 31.996C33.8654 29.8024 34.9685 27.4352 35.4572 24.2422C35.7438 22.3576 35.6244 19.284 35.1916 17.3296C34.2345 13.0276 31.7113 8.81576 28.0549 5.41581C26.8119 4.267 25.5343 3.19068 25.4147 3.193C25.3788 3.19369 25.5404 3.50174 25.7749 3.86821Z" fill="#F9E8D9"/>
<path d="M50.031 19.526H61.548V23.156H50.031V19.526ZM50.394 32H46.104V8.9H62.967V12.497H50.394V32ZM68.3328 38.633C67.4748 38.633 66.6168 38.49 65.7588 38.204C64.9008 37.918 64.1858 37.522 63.6138 37.016L65.2638 33.98C65.6818 34.354 66.1548 34.651 66.6828 34.871C67.2108 35.091 67.7498 35.201 68.2998 35.201C69.0478 35.201 69.6528 35.014 70.1148 34.64C70.5768 34.266 71.0058 33.639 71.4018 32.759L72.4248 30.449L72.7548 29.954L79.4208 14.378H83.3808L75.1308 33.419C74.5808 34.739 73.9648 35.784 73.2828 36.554C72.6228 37.324 71.8748 37.863 71.0388 38.171C70.2248 38.479 69.3228 38.633 68.3328 38.633ZM71.9628 32.627L64.0098 14.378H68.2998L74.7678 29.591L71.9628 32.627ZM95.9579 14.18C97.3659 14.18 98.6199 14.455 99.7199 15.005C100.842 15.555 101.722 16.402 102.36 17.546C102.998 18.668 103.317 20.12 103.317 21.902V32H99.1919V22.43C99.1919 20.868 98.8179 19.702 98.0699 18.932C97.3439 18.162 96.3209 17.777 95.0009 17.777C94.0329 17.777 93.1749 17.975 92.4269 18.371C91.6789 18.767 91.0959 19.361 90.6779 20.153C90.2819 20.923 90.0839 21.902 90.0839 23.09V32H85.9589V14.378H89.8859V19.13L89.1929 17.678C89.8089 16.556 90.6999 15.698 91.8659 15.104C93.0539 14.488 94.4179 14.18 95.9579 14.18ZM108.946 32V8.9H119.044C121.552 8.9 123.752 9.384 125.644 10.352C127.536 11.32 129.01 12.662 130.066 14.378C131.122 16.094 131.65 18.118 131.65 20.45C131.65 22.76 131.122 24.784 130.066 26.522C129.01 28.238 127.536 29.58 125.644 30.548C123.752 31.516 121.552 32 119.044 32H108.946ZM113.236 28.37H118.846C120.584 28.37 122.08 28.04 123.334 27.38C124.61 26.72 125.589 25.796 126.271 24.608C126.975 23.42 127.327 22.034 127.327 20.45C127.327 18.844 126.975 17.458 126.271 16.292C125.589 15.104 124.61 14.18 123.334 13.52C122.08 12.86 120.584 12.53 118.846 12.53H113.236V28.37ZM144.096 32.231C142.138 32.231 140.422 31.846 138.948 31.076C137.496 30.284 136.363 29.206 135.549 27.842C134.757 26.478 134.361 24.927 134.361 23.189C134.361 21.429 134.746 19.878 135.516 18.536C136.308 17.172 137.386 16.105 138.75 15.335C140.136 14.565 141.709 14.18 143.469 14.18C145.185 14.18 146.714 14.554 148.056 15.302C149.398 16.05 150.454 17.106 151.224 18.47C151.994 19.834 152.379 21.44 152.379 23.288C152.379 23.464 152.368 23.662 152.346 23.882C152.346 24.102 152.335 24.311 152.313 24.509H137.628V21.77H150.135L148.518 22.628C148.54 21.616 148.331 20.725 147.891 19.955C147.451 19.185 146.846 18.58 146.076 18.14C145.328 17.7 144.459 17.48 143.469 17.48C142.457 17.48 141.566 17.7 140.796 18.14C140.048 18.58 139.454 19.196 139.014 19.988C138.596 20.758 138.387 21.671 138.387 22.727V23.387C138.387 24.443 138.629 25.378 139.113 26.192C139.597 27.006 140.279 27.633 141.159 28.073C142.039 28.513 143.051 28.733 144.195 28.733C145.185 28.733 146.076 28.579 146.868 28.271C147.66 27.963 148.364 27.479 148.98 26.819L151.191 29.36C150.399 30.284 149.398 30.999 148.188 31.505C147 31.989 145.636 32.231 144.096 32.231ZM164.427 32.231C162.579 32.231 160.929 31.846 159.477 31.076C158.047 30.284 156.925 29.206 156.111 27.842C155.297 26.478 154.89 24.927 154.89 23.189C154.89 21.429 155.297 19.878 156.111 18.536C156.925 17.172 158.047 16.105 159.477 15.335C160.929 14.565 162.579 14.18 164.427 14.18C166.143 14.18 167.65 14.532 168.948 15.236C170.268 15.918 171.269 16.93 171.951 18.272L168.783 20.12C168.255 19.284 167.606 18.668 166.836 18.272C166.088 17.876 165.274 17.678 164.394 17.678C163.382 17.678 162.469 17.898 161.655 18.338C160.841 18.778 160.203 19.416 159.741 20.252C159.279 21.066 159.048 22.045 159.048 23.189C159.048 24.333 159.279 25.323 159.741 26.159C160.203 26.973 160.841 27.6 161.655 28.04C162.469 28.48 163.382 28.7 164.394 28.7C165.274 28.7 166.088 28.502 166.836 28.106C167.606 27.71 168.255 27.094 168.783 26.258L171.951 28.106C171.269 29.426 170.268 30.449 168.948 31.175C167.65 31.879 166.143 32.231 164.427 32.231ZM183.179 32.231C181.375 32.231 179.769 31.846 178.361 31.076C176.953 30.284 175.842 29.206 175.028 27.842C174.214 26.478 173.807 24.927 173.807 23.189C173.807 21.429 174.214 19.878 175.028 18.536C175.842 17.172 176.953 16.105 178.361 15.335C179.769 14.565 181.375 14.18 183.179 14.18C185.005 14.18 186.622 14.565 188.03 15.335C189.46 16.105 190.571 17.161 191.363 18.503C192.177 19.845 192.584 21.407 192.584 23.189C192.584 24.927 192.177 26.478 191.363 27.842C190.571 29.206 189.46 30.284 188.03 31.076C186.622 31.846 185.005 32.231 183.179 32.231ZM183.179 28.7C184.191 28.7 185.093 28.48 185.885 28.04C186.677 27.6 187.293 26.962 187.733 26.126C188.195 25.29 188.426 24.311 188.426 23.189C188.426 22.045 188.195 21.066 187.733 20.252C187.293 19.416 186.677 18.778 185.885 18.338C185.093 17.898 184.202 17.678 183.212 17.678C182.2 17.678 181.298 17.898 180.506 18.338C179.736 18.778 179.12 19.416 178.658 20.252C178.196 21.066 177.965 22.045 177.965 23.189C177.965 24.311 178.196 25.29 178.658 26.126C179.12 26.962 179.736 27.6 180.506 28.04C181.298 28.48 182.189 28.7 183.179 28.7ZM196.528 32V14.378H200.455V19.229L199.993 17.81C200.521 16.622 201.346 15.72 202.468 15.104C203.612 14.488 205.031 14.18 206.725 14.18V18.107C206.549 18.063 206.384 18.041 206.23 18.041C206.076 18.019 205.922 18.008 205.768 18.008C204.206 18.008 202.963 18.47 202.039 19.394C201.115 20.296 200.653 21.649 200.653 23.453V32H196.528Z" fill="black"/>
</svg>
